<svg xmlns="http://www.w3.org/2000/svg" xmlns:xlink="http://www.w3.org/1999/xlink" width="100" height="41" viewBox="0 0 100 41">
  <defs>
    <clipPath id="clip-path">
      <rect id="Rectangle_7602" data-name="Rectangle 7602" width="100" height="41" transform="translate(245 245)" fill="#fff"/>
    </clipPath>
  </defs>
  <g id="Mask_Group_68" data-name="Mask Group 68" transform="translate(-245 -245)" clip-path="url(#clip-path)">
    <g id="Group_15428" data-name="Group 15428" transform="translate(244.861 245)">
      <path id="Path_25534" data-name="Path 25534" d="M14.238,116.521v-.779a3.741,3.741,0,0,1-2.78,1.033,4.273,4.273,0,0,1-2.85-.929,3.234,3.234,0,0,1-1.107-2.63,3.066,3.066,0,0,1,1.255-2.652,5.006,5.006,0,0,1,3.02-.905,5.669,5.669,0,0,1,2.463.5v-.548q0-1.7-1.936-1.7a5.768,5.768,0,0,0-3.329,1.073l-.84-2.208a7.656,7.656,0,0,1,4.4-1.264,7.113,7.113,0,0,1,1.53.148,5.126,5.126,0,0,1,1.375.546,2.628,2.628,0,0,1,1.107,1.273,5.34,5.34,0,0,1,.389,2.18v6.862Zm-2.252-2.147a3.248,3.248,0,0,0,2.252-.881v-1.16a5.321,5.321,0,0,0-2-.357,3.123,3.123,0,0,0-1.495.3,1,1,0,0,0-.57.935.972.972,0,0,0,.474.844A2.427,2.427,0,0,0,11.986,114.374Z" transform="translate(-7.5 -80.195)" fill="#0064bf"/>
      <path id="Path_25535" data-name="Path 25535" d="M47.694,106.819a3.968,3.968,0,0,1-3.255-1.473,6.5,6.5,0,0,1-1.19-4.171,6.248,6.248,0,0,1,1.253-4.1,3.974,3.974,0,0,1,3.213-1.523,2.768,2.768,0,0,1,2.292,1.031V92.608l2.736-1.242v15.2H50.007v-.779A2.574,2.574,0,0,1,47.694,106.819Zm.44-2.633a2.134,2.134,0,0,0,1.873-.864V99.072a2.184,2.184,0,0,0-1.873-.883,1.847,1.847,0,0,0-1.588.768,3.737,3.737,0,0,0-.56,2.219,3.8,3.8,0,0,0,.56,2.208A1.824,1.824,0,0,0,48.134,104.186Z" transform="translate(-32.661 -70.238)" fill="#0064bf"/>
      <path id="Path_25536" data-name="Path 25536" d="M86.3,116.521v-.779a3.734,3.734,0,0,1-2.776,1.033,4.291,4.291,0,0,1-2.856-.929,3.241,3.241,0,0,1-1.1-2.63,3.071,3.071,0,0,1,1.254-2.652,5.009,5.009,0,0,1,3.021-.905,5.641,5.641,0,0,1,2.461.5v-.548c0-1.136-.646-1.7-1.932-1.7a5.758,5.758,0,0,0-3.326,1.073l-.843-2.208a7.654,7.654,0,0,1,4.4-1.264,7.114,7.114,0,0,1,1.525.148,5.155,5.155,0,0,1,1.379.546,2.638,2.638,0,0,1,1.105,1.273,5.34,5.34,0,0,1,.389,2.18v6.862Zm-2.25-2.147a3.24,3.24,0,0,0,2.25-.881v-1.16a5.284,5.284,0,0,0-2-.357,3.155,3.155,0,0,0-1.495.3,1,1,0,0,0-.566.935.975.975,0,0,0,.472.844A2.426,2.426,0,0,0,84.054,114.374Z" transform="translate(-58.222 -80.195)" fill="#0064bf"/>
      <path id="Path_25537" data-name="Path 25537" d="M129.736,116.521v-5.872a3.534,3.534,0,0,0-.4-1.915,1.467,1.467,0,0,0-1.309-.59,1.665,1.665,0,0,0-1.418.59,3.109,3.109,0,0,0-.453,1.895v5.891h-2.739v-5.872a3.517,3.517,0,0,0-.4-1.915,1.469,1.469,0,0,0-1.305-.59,1.682,1.682,0,0,0-1.423.59,3.138,3.138,0,0,0-.453,1.895v5.891H117.1V105.765h2.737v.99a3.072,3.072,0,0,1,2.545-1.242,2.825,2.825,0,0,1,2.761,1.516,3.764,3.764,0,0,1,3.3-1.516q4.022,0,4.019,4.253v6.755Z" transform="translate(-84.639 -80.195)" fill="#0064bf"/>
      <path id="Path_25538" data-name="Path 25538" d="M166.326,121.628l-1.388-2.165a6.616,6.616,0,0,0,2.356-.87,1.616,1.616,0,0,0,.653-1.386V106.364h2.737v10.169a4.761,4.761,0,0,1-1.053,3.409A6.218,6.218,0,0,1,166.326,121.628Z" transform="translate(-118.307 -80.794)" fill="#0064bf"/>
      <path id="Path_25539" data-name="Path 25539" d="M194.066,116.776a4.727,4.727,0,0,1-3.681-1.49,6,6,0,0,1-1.346-4.153,5.908,5.908,0,0,1,1.357-4.1,5.2,5.2,0,0,1,7.1-.222,5.027,5.027,0,0,1,1.333,3.779,11.828,11.828,0,0,1-.089,1.618h-7.013a2.291,2.291,0,0,0,.748,1.593,2.344,2.344,0,0,0,1.591.577,2.813,2.813,0,0,0,2.317-1.114l1.682,1.706A4.9,4.9,0,0,1,194.066,116.776Zm-2.315-6.884h4.4a2.355,2.355,0,0,0-.681-1.453,1.965,1.965,0,0,0-1.4-.527A2.064,2.064,0,0,0,191.751,109.892Z" transform="translate(-135.269 -80.195)" fill="#0064bf"/>
      <path id="Path_25540" data-name="Path 25540" d="M229.6,116.776a4.723,4.723,0,0,1-3.685-1.49,6,6,0,0,1-1.349-4.153,5.918,5.918,0,0,1,1.36-4.1,5.2,5.2,0,0,1,7.1-.222,5.038,5.038,0,0,1,1.325,3.779,12.077,12.077,0,0,1-.081,1.618h-7.011a2.28,2.28,0,0,0,.746,1.593,2.343,2.343,0,0,0,1.591.577,2.818,2.818,0,0,0,2.315-1.114l1.684,1.706A4.913,4.913,0,0,1,229.6,116.776Zm-2.316-6.884h4.4a2.357,2.357,0,0,0-.683-1.453,1.949,1.949,0,0,0-1.4-.527A2.063,2.063,0,0,0,227.287,109.892Z" transform="translate(-160.277 -80.195)" fill="#0064bf"/>
      <path id="Path_25541" data-name="Path 25541" d="M262.24,106.564V92.652l2.737-1.286v15.2Z" transform="translate(-186.79 -70.238)" fill="#12845a"/>
      <path id="Path_25542" data-name="Path 25542" d="M279.123,94.546a1.614,1.614,0,0,1-1.6-1.6,1.516,1.516,0,0,1,.461-1.116,1.64,1.64,0,0,1,2.276-.009,1.515,1.515,0,0,1,.466,1.125,1.556,1.556,0,0,1-.466,1.137A1.54,1.54,0,0,1,279.123,94.546Zm-1.368,12.018V95.808h2.733v10.756Z" transform="translate(-197.545 -70.238)" fill="#12845a"/>
      <path id="Path_25543" data-name="Path 25543" d="M295.395,98.709v8.356h-2.738V98.709h-1.495v-2.4h1.495V94.668a2.318,2.318,0,0,1,2.653-2.59,5.233,5.233,0,0,1,2.4.527V94.84a4.222,4.222,0,0,0-1.536-.359c-.522,0-.781.241-.781.734v1.094h2.317v2.4Z" transform="translate(-207.145 -70.739)" fill="#12845a"/>
      <path id="Path_25544" data-name="Path 25544" d="M317.947,116.776a4.73,4.73,0,0,1-3.683-1.49,6,6,0,0,1-1.349-4.153,5.909,5.909,0,0,1,1.362-4.1,5.2,5.2,0,0,1,7.1-.222,5.038,5.038,0,0,1,1.327,3.779,11.952,11.952,0,0,1-.085,1.618h-7.01a2.279,2.279,0,0,0,.745,1.593,2.343,2.343,0,0,0,1.591.577,2.815,2.815,0,0,0,2.315-1.114l1.684,1.706A4.9,4.9,0,0,1,317.947,116.776Zm-2.315-6.884h4.4a2.381,2.381,0,0,0-.685-1.453,1.951,1.951,0,0,0-1.4-.527A2.063,2.063,0,0,0,315.632,109.892Z" transform="translate(-222.455 -80.195)" fill="#12845a"/>
      <path id="Path_25545" data-name="Path 25545" d="M117.247,20.032h-22.3l-15.2,21.5H97.22l1.917-3.709h4.4A13.416,13.416,0,0,1,104,35.993H97.989l-1.9,3.71h-12.8L95.9,21.892H116.3L128.933,39.7H116.112l-1.882-3.71h-4.523a9.6,9.6,0,0,0-.813,1.828h4.2L115,41.531h17.488Z" transform="translate(-58.346 -20.032)" fill="#0064bf"/>
      <path id="Path_25546" data-name="Path 25546" d="M163.868,37.606a2.07,2.07,0,1,0,2.066,2.065A2.072,2.072,0,0,0,163.868,37.606Z" transform="translate(-116.094 -32.401)" fill="#12845a"/>
      <path id="Path_25547" data-name="Path 25547" d="M142.932,48.086a12.437,12.437,0,0,0-1.025,1.794h-1.046l-.011-.011A11.088,11.088,0,0,0,132.5,44.7h-.035l.011-.023,1.449-2.116.011.011A13.873,13.873,0,0,1,142.932,48.086Z" transform="translate(-95.449 -35.889)" fill="#12845a"/>
      <path id="Path_25548" data-name="Path 25548" d="M173.608,42.917l-.009-.01-.011,0c-6.892,2.515-10.446,7.15-10.863,14.17,0,.045-.005.5-.008.549h2.739c0-.041.005-.495.008-.536a12.677,12.677,0,0,1,9.781-11.823l.022-.007Z" transform="translate(-116.743 -36.132)" fill="#12845a"/>
    </g>
  </g>
</svg>
