<svg xmlns="http://www.w3.org/2000/svg" xmlns:xlink="http://www.w3.org/1999/xlink" id="Layer_1" x="0px" y="0px" viewBox="0 0 178.3 89.5" xml:space="preserve"><g>	<g>		<g>			<g>				<g>					<defs>						<path id="SVGID_1_" d="M157.5,61.4c6.1-10.6,12.1-21.2,18.2-31.9c1.2-2.1,0.4-4.9-1.8-6C121-5,57.3-5,4.4,23.5       c-2.2,1.2-3,3.9-1.8,6c6.1,10.6,12.1,21.2,18.2,31.9c1.2,2,3.7,2.8,5.8,1.7c39.1-20.7,86-20.7,125.1,0       C153.8,64.2,156.3,63.4,157.5,61.4z"></path>					</defs>					<clipPath id="SVGID_00000010291208455090530500000012384472532674296194_">						<use xlink:href="#SVGID_1_"></use>					</clipPath>											<rect x="1.4" y="-5" clip-path="url(#SVGID_00000010291208455090530500000012384472532674296194_)" fill="#D42F2B" width="175.5" height="69.2"></rect>					<path clip-path="url(#SVGID_00000010291208455090530500000012384472532674296194_)" fill="#D42F2B" d="M117.1-10.7      c21.3,14.8,26.5,44,11.8,65.3c-7.4,10.6-18.4,17.3-30.2,19.4v-8.3H63.6v0.7C42.3,51.5,37,22.3,51.8,1      c3.7-5.3,8.3-9.6,13.4-12.9v5.4h51.8V-10.7z"></path>					<path clip-path="url(#SVGID_00000010291208455090530500000012384472532674296194_)" fill="#D52F2A" d="M116.4-9.8      c20.8,14.4,25.9,43,11.5,63.8c-7.2,10.4-18,16.9-29.5,19s-23.9-0.2-34.3-7.5C43.4,51,38.3,22.4,52.7,1.7      c3.6-5.2,8.1-9.4,13.1-12.6v4.5h50.6V-9.8z"></path>					<path clip-path="url(#SVGID_00000010291208455090530500000012384472532674296194_)" fill="#D62F29" d="M115.8-8.9      c20.3,14.1,25.3,42,11.2,62.2c-7,10.1-17.5,16.5-28.8,18.5s-23.3-0.2-33.4-7.3c-20.3-14.1-25.3-42-11.2-62.2      c7-10.1,17.5-16.5,28.8-18.5v9.8h33.4V-8.9z"></path>					<path clip-path="url(#SVGID_00000010291208455090530500000012384472532674296194_)" fill="#D72F28" d="M115.2-8      c19.8,13.7,24.7,40.9,10.9,60.7c-6.9,9.9-17.1,16.1-28.1,18c-11,2-22.7-0.2-32.6-7.1C45.6,49.9,40.7,22.7,54.5,2.9      c6.9-9.9,17.1-16.1,28.1-18v8.7h32.6V-8z"></path>					<path clip-path="url(#SVGID_00000010291208455090530500000012384472532674296194_)" fill="#D82F27" d="M114.6-7.1      c19.3,13.4,24.1,39.9,10.7,59.2c-6.7,9.6-16.7,15.7-27.4,17.6c-10.7,1.9-22.2-0.2-31.8-6.9C46.8,49.3,42,22.8,55.4,3.5      C62.1-6.1,72-12.1,82.8-14.1v7.6h31.8V-7.1z"></path>					<path clip-path="url(#SVGID_00000010291208455090530500000012384472532674296194_)" fill="#D83127" d="M113.9-6.3      c18.8,13.1,23.5,38.9,10.4,57.7S85.5,74.9,66.7,61.8S43.2,23,56.3,4.2C62.8-5.2,72.5-11.1,83-13S104.5-12.8,113.9-6.3z"></path>					<path clip-path="url(#SVGID_00000010291208455090530500000012384472532674296194_)" fill="#DA3027" d="M113.3-5.4      c18.3,12.7,22.8,37.9,10.1,56.2S85.6,73.6,67.3,60.9S44.5,23.1,57.2,4.8c6.4-9.2,15.8-14.9,26-16.7S104.2-11.7,113.3-5.4z"></path>					<path clip-path="url(#SVGID_00000010291208455090530500000012384472532674296194_)" fill="#DB3027" d="M112.7-4.5      c17.8,12.4,22.2,36.8,9.9,54.6S85.7,72.4,67.9,60S45.7,23.2,58.1,5.4c6.2-8.9,15.4-14.5,25.3-16.2S103.8-10.6,112.7-4.5z"></path>											<circle clip-path="url(#SVGID_00000010291208455090530500000012384472532674296194_)" fill="#DC3027" cx="90.3" cy="27.8" r="38.2"></circle>											<circle clip-path="url(#SVGID_00000010291208455090530500000012384472532674296194_)" fill="#DD2F27" cx="90.3" cy="27.8" r="37.1"></circle>											<circle clip-path="url(#SVGID_00000010291208455090530500000012384472532674296194_)" fill="#DD2E26" cx="90.3" cy="27.8" r="36"></circle>											<circle clip-path="url(#SVGID_00000010291208455090530500000012384472532674296194_)" fill="#DF2E27" cx="90.3" cy="27.8" r="34.9"></circle>											<circle clip-path="url(#SVGID_00000010291208455090530500000012384472532674296194_)" fill="#E02E26" cx="90.3" cy="27.8" r="33.8"></circle>											<circle clip-path="url(#SVGID_00000010291208455090530500000012384472532674296194_)" fill="#E12E26" cx="90.3" cy="27.8" r="32.7"></circle>											<circle clip-path="url(#SVGID_00000010291208455090530500000012384472532674296194_)" fill="#E22E26" cx="90.3" cy="27.8" r="31.6"></circle>											<circle clip-path="url(#SVGID_00000010291208455090530500000012384472532674296194_)" fill="#E22E26" cx="90.3" cy="27.8" r="30.5"></circle>											<circle clip-path="url(#SVGID_00000010291208455090530500000012384472532674296194_)" fill="#E32F26" cx="90.3" cy="27.8" r="29.4"></circle>											<circle clip-path="url(#SVGID_00000010291208455090530500000012384472532674296194_)" fill="#E42F26" cx="90.3" cy="27.8" r="28.4"></circle>											<circle clip-path="url(#SVGID_00000010291208455090530500000012384472532674296194_)" fill="#E42E25" cx="90.3" cy="27.8" r="27.3"></circle>											<circle clip-path="url(#SVGID_00000010291208455090530500000012384472532674296194_)" fill="#E52E25" cx="90.3" cy="27.8" r="26.2"></circle>											<circle clip-path="url(#SVGID_00000010291208455090530500000012384472532674296194_)" fill="#E62E25" cx="90.3" cy="27.8" r="25.1"></circle>											<circle clip-path="url(#SVGID_00000010291208455090530500000012384472532674296194_)" fill="#E72E25" cx="90.3" cy="27.8" r="24"></circle>											<circle clip-path="url(#SVGID_00000010291208455090530500000012384472532674296194_)" fill="#E82D25" cx="90.3" cy="27.8" r="22.9"></circle>											<circle clip-path="url(#SVGID_00000010291208455090530500000012384472532674296194_)" fill="#E92D24" cx="90.3" cy="27.8" r="21.8"></circle>											<circle clip-path="url(#SVGID_00000010291208455090530500000012384472532674296194_)" fill="#EC2E24" cx="90.3" cy="27.8" r="20.7"></circle>											<circle clip-path="url(#SVGID_00000010291208455090530500000012384472532674296194_)" fill="#ED2D24" cx="90.3" cy="27.8" r="19.6"></circle>											<circle clip-path="url(#SVGID_00000010291208455090530500000012384472532674296194_)" fill="#EE2D24" cx="90.3" cy="27.8" r="18.5"></circle>											<circle clip-path="url(#SVGID_00000010291208455090530500000012384472532674296194_)" fill="#EE2D24" cx="90.3" cy="27.8" r="17.5"></circle>											<circle clip-path="url(#SVGID_00000010291208455090530500000012384472532674296194_)" fill="#EE2D24" cx="90.3" cy="27.8" r="16.4"></circle>											<circle clip-path="url(#SVGID_00000010291208455090530500000012384472532674296194_)" fill="#EE2C24" cx="90.3" cy="27.8" r="15.3"></circle>											<circle clip-path="url(#SVGID_00000010291208455090530500000012384472532674296194_)" fill="#EE2D24" cx="90.3" cy="27.8" r="14.2"></circle>											<circle clip-path="url(#SVGID_00000010291208455090530500000012384472532674296194_)" fill="#EE2D24" cx="90.3" cy="27.8" r="13.1"></circle>											<circle clip-path="url(#SVGID_00000010291208455090530500000012384472532674296194_)" fill="#EE2F24" cx="90.3" cy="27.8" r="12"></circle>											<circle clip-path="url(#SVGID_00000010291208455090530500000012384472532674296194_)" fill="#EE2F24" cx="90.3" cy="27.8" r="10.9"></circle>											<circle clip-path="url(#SVGID_00000010291208455090530500000012384472532674296194_)" fill="#EE2F24" cx="90.3" cy="27.8" r="9.8"></circle>											<circle clip-path="url(#SVGID_00000010291208455090530500000012384472532674296194_)" fill="#EE2F24" cx="90.3" cy="27.8" r="8.7"></circle>											<circle clip-path="url(#SVGID_00000010291208455090530500000012384472532674296194_)" fill="#EE3024" cx="90.3" cy="27.8" r="7.6"></circle>											<circle clip-path="url(#SVGID_00000010291208455090530500000012384472532674296194_)" fill="#EE2F24" cx="90.3" cy="27.8" r="6.5"></circle>											<circle clip-path="url(#SVGID_00000010291208455090530500000012384472532674296194_)" fill="#EE3024" cx="90.3" cy="27.8" r="5.5"></circle>											<circle clip-path="url(#SVGID_00000010291208455090530500000012384472532674296194_)" fill="#EE3024" cx="90.3" cy="27.8" r="4.4"></circle>											<circle clip-path="url(#SVGID_00000010291208455090530500000012384472532674296194_)" fill="#EE3224" cx="90.3" cy="27.8" r="3.3"></circle>											<circle clip-path="url(#SVGID_00000010291208455090530500000012384472532674296194_)" fill="#EE3224" cx="90.3" cy="27.8" r="2.2"></circle>											<circle clip-path="url(#SVGID_00000010291208455090530500000012384472532674296194_)" fill="#EE3324" cx="90.3" cy="27.8" r="1.1"></circle>				</g>									<radialGradient id="SVGID_00000094577540843639929940000014958793889510357142_" cx="89.156" cy="32.8361" r="66.6323" gradientUnits="userSpaceOnUse">					<stop offset="0.1" style="stop-color:#F9CC34"></stop>					<stop offset="1" style="stop-color:#F89521"></stop>				</radialGradient>				<path fill="url(#SVGID_00000094577540843639929940000014958793889510357142_)" d="M24.6,65.1c-2,0-4-1.1-5-2.9L1.4,30.2     c-0.8-1.4-1-3-0.5-4.5c0.4-1.5,1.5-2.8,2.9-3.5c53.5-28.8,117.4-28.8,170.9,0c1.4,0.8,2.4,2,2.9,3.5c0.4,1.5,0.2,3.1-0.5,4.5     l-18.2,31.9c-1.6,2.7-5,3.7-7.7,2.3c-38.7-20.5-85-20.5-123.7,0C26.4,64.8,25.5,65.1,24.6,65.1z M89.2,3.5     c-28.9,0-57.8,7.1-84.1,21.2c-0.7,0.4-1.2,1-1.4,1.8c-0.2,0.8-0.1,1.6,0.3,2.2l18.2,31.9c0.8,1.4,2.5,1.9,3.9,1.1     c39.6-21,86.9-21,126.4,0c1.4,0.7,3.1,0.2,3.9-1.1l0,0l18.2-31.9c0.4-0.7,0.5-1.5,0.3-2.2c-0.2-0.8-0.7-1.4-1.4-1.8     C146.9,10.6,118,3.5,89.2,3.5z"></path>			</g>			<g>				<path fill="#802A19" d="M32.1,50.4l-9.7-23.5c-0.1-0.3,0-0.6,0.3-0.7l4.5-1.9c0.3-0.1,0.6,0,0.7,0.3l7.8,18.8     c0.1,0.3,0.4,0.4,0.7,0.3l8.7-3.6c0.3-0.1,0.6,0,0.7,0.3l1.5,3.6c0.1,0.3,0,0.6-0.3,0.7l-14.3,5.9     C32.6,50.8,32.2,50.7,32.1,50.4z"></path>				<path fill="#802A19" d="M47.2,17.1l4.8-0.9c0.3-0.1,0.6,0.1,0.7,0.4l2.7,14.4c0.4,2.2,1.1,3.8,2.2,4.8c1,1,2.3,1.3,3.8,1     c3.2-0.6,4.3-3.2,3.5-7.7l-2.7-14.4c-0.1-0.3,0.1-0.6,0.4-0.7l4.8-0.9c0.3-0.1,0.6,0.1,0.7,0.4l2.7,14c0.7,3.9,0.4,7.1-1.1,9.4     c-1.5,2.3-4,3.8-7.5,4.5c-3.4,0.6-6.1,0.2-8.2-1.4c-2.2-1.6-3.7-4.5-4.5-8.6l-2.7-14C46.7,17.5,46.9,17.2,47.2,17.1z"></path>				<path fill="#802A19" d="M98.7,34.3l0.6,3.6c0,0.3-0.1,0.5-0.4,0.6c-0.6,0.2-1.4,0.4-2.3,0.6c-1.2,0.2-2.6,0.3-4.1,0.3     c-4.4-0.1-7.9-1.4-10.3-4c-2.3-2.4-3.4-5.6-3.4-9.5c0.1-4.4,1.5-7.8,4.4-10.3c2.7-2.4,6.1-3.5,10.3-3.5c1.5,0,2.8,0.2,3.9,0.4     c0.9,0.2,1.6,0.4,2.2,0.6c0.2,0.1,0.4,0.4,0.3,0.7l-1,3.7c-0.1,0.3-0.4,0.5-0.7,0.4c-0.5-0.2-1.1-0.4-1.7-0.5     c-0.9-0.2-1.8-0.3-2.7-0.3c-2.5,0-4.5,0.7-6.1,2.1c-1.6,1.5-2.5,3.7-2.5,6.6c0,2.7,0.7,4.8,2.1,6.4c1.5,1.6,3.5,2.4,6.2,2.4     c1.7,0,3.2-0.2,4.4-0.5C98.3,33.8,98.6,34,98.7,34.3z"></path>				<path fill="#802A19" d="M105.4,39.3l5.3-24.8c0.1-0.3,0.4-0.5,0.7-0.4l4.7,1c0.3,0.1,0.5,0.4,0.4,0.7l-2.3,10.9l2.5-2.4l7.5-7.2     c0.1-0.1,0.3-0.2,0.5-0.1l5.8,1.2c0.5,0.1,0.6,0.7,0.2,1l-9.8,8.2c-0.2,0.1-0.2,0.4-0.2,0.6l5.4,15.5c0.1,0.4-0.2,0.8-0.6,0.7     l-5.6-1.2c-0.2,0-0.4-0.2-0.4-0.4l-3.6-11.5c-0.1-0.4-0.6-0.5-0.9-0.3l-2,1.6c-0.1,0.1-0.2,0.2-0.2,0.3l-1.7,7.7     c-0.1,0.3-0.4,0.5-0.7,0.4l-4.7-1C105.5,39.9,105.3,39.6,105.4,39.3z"></path>				<path fill="#802A19" d="M140.9,50.8l-4.4-2.1c-0.3-0.1-0.4-0.5-0.3-0.7l4.3-9.2c0-0.1,0.1-0.2,0.1-0.3l-0.9-16.7     c0-0.4,0.4-0.7,0.8-0.5l5,2.3c0.2,0.1,0.3,0.3,0.3,0.5l-0.2,6.6l-0.2,4.1c0,0.5,0.6,0.8,0.9,0.4l3-2.8l4.8-4.4     c0.2-0.2,0.4-0.2,0.6-0.1l4.9,2.3c0.4,0.2,0.4,0.7,0.1,1L146.2,41c-0.1,0.1-0.1,0.1-0.2,0.2l-4.4,9.4     C141.5,50.9,141.2,51,140.9,50.8z"></path>			</g>			<g>				<g>					<path fill="#FFFFFF" d="M31.2,49.3l-9.7-23.5c-0.1-0.3,0-0.6,0.3-0.7l4.5-1.9c0.3-0.1,0.6,0,0.7,0.3l7.8,18.8      c0.1,0.3,0.4,0.4,0.7,0.3l8.7-3.6c0.3-0.1,0.6,0,0.7,0.3l1.5,3.6c0.1,0.3,0,0.6-0.3,0.7l-14.3,5.9      C31.6,49.7,31.3,49.5,31.2,49.3z"></path>					<path fill="#B21F24" d="M31.7,49.9c-0.3,0-0.6-0.2-0.8-0.5l-9.7-23.5c-0.1-0.2-0.1-0.4,0-0.6c0.1-0.2,0.2-0.4,0.4-0.4l4.5-1.9      c0.2-0.1,0.4-0.1,0.6,0c0.2,0.1,0.4,0.2,0.4,0.4L35,42.2c0.1,0.2,0.2,0.2,0.4,0.2l8.7-3.6c0.2-0.1,0.4-0.1,0.6,0      c0.2,0.1,0.4,0.2,0.4,0.4l1.5,3.6c0.2,0.4,0,0.9-0.4,1.1L32,49.8C31.9,49.8,31.8,49.9,31.7,49.9z M26.5,23.4c0,0-0.1,0-0.1,0      l-4.5,1.9c-0.1,0-0.1,0.1-0.2,0.2c0,0.1,0,0.2,0,0.2l9.7,23.5c0.1,0.2,0.2,0.2,0.4,0.2l14.3-5.9c0.2-0.1,0.2-0.2,0.2-0.4      l-1.5-3.6c0-0.1-0.1-0.1-0.2-0.2c-0.1,0-0.2,0-0.2,0l-8.7,3.6c-0.4,0.2-0.9,0-1.1-0.4l-7.8-18.8c0-0.1-0.1-0.1-0.2-0.2      C26.6,23.4,26.5,23.4,26.5,23.4z"></path>				</g>				<g>					<path fill="#FFFFFF" d="M46.3,16l4.8-0.9c0.3-0.1,0.6,0.1,0.7,0.4l2.7,14.4c0.4,2.2,1.1,3.8,2.2,4.8c1,1,2.3,1.3,3.8,1      c3.2-0.6,4.3-3.2,3.5-7.7l-2.7-14.4c-0.1-0.3,0.1-0.6,0.4-0.7l4.8-0.9c0.3-0.1,0.6,0.1,0.7,0.4l2.7,14c0.7,3.9,0.4,7.1-1.1,9.4      c-1.5,2.3-4,3.8-7.5,4.5c-3.4,0.6-6.1,0.2-8.2-1.4c-2.2-1.6-3.7-4.5-4.5-8.6l-2.7-14C45.8,16.3,46,16,46.3,16z"></path>					<path fill="#B21F24" d="M58.3,41.1c-2.2,0-4.1-0.6-5.6-1.7c-2.2-1.7-3.8-4.6-4.6-8.7l-2.7-14c0-0.2,0-0.4,0.1-0.6      c0.1-0.2,0.3-0.3,0.5-0.3l4.8-0.9c0.4-0.1,0.9,0.2,1,0.6l2.7,14.4c0.4,2.2,1.1,3.8,2.1,4.7c1,0.9,2.1,1.2,3.6,1      c1.5-0.3,2.5-1,3.1-2.2c0.6-1.2,0.6-3,0.2-5.1l-2.7-14.4c-0.1-0.4,0.2-0.9,0.6-1l4.8-0.9c0.4-0.1,0.9,0.2,1,0.6l2.7,14      c0.8,4,0.4,7.2-1.2,9.6c-1.5,2.4-4.1,3.9-7.6,4.6C60.2,41,59.2,41.1,58.3,41.1z M51.2,15.3C51.2,15.3,51.1,15.3,51.2,15.3      l-4.9,0.9c-0.1,0-0.1,0.1-0.2,0.1c0,0.1-0.1,0.1,0,0.2l2.7,14c0.8,4,2.2,6.8,4.4,8.4c2,1.5,4.7,1.9,8,1.3      c3.4-0.6,5.9-2.1,7.3-4.4c1.5-2.3,1.8-5.4,1.1-9.2l-2.7-14c0-0.2-0.2-0.3-0.4-0.2l-4.8,0.9c-0.2,0-0.3,0.2-0.2,0.4l2.7,14.4      c0.4,2.3,0.4,4.1-0.2,5.4c-0.6,1.4-1.8,2.2-3.4,2.5c-1.6,0.3-3-0.1-4.1-1.1c-1-1-1.8-2.7-2.2-5l-2.7-14.4      c0-0.1-0.1-0.1-0.1-0.2C51.3,15.3,51.2,15.3,51.2,15.3z"></path>				</g>				<g>					<path fill="#FFFFFF" d="M97.7,33.2l0.6,3.6c0,0.3-0.1,0.5-0.4,0.6c-0.6,0.2-1.4,0.4-2.3,0.6c-1.2,0.2-2.6,0.3-4.1,0.3      c-4.4-0.1-7.9-1.4-10.3-4c-2.3-2.4-3.4-5.6-3.4-9.5c0.1-4.4,1.5-7.8,4.4-10.3c2.7-2.4,6.1-3.5,10.3-3.5c1.5,0,2.8,0.2,3.9,0.4      c0.9,0.2,1.6,0.4,2.2,0.6c0.2,0.1,0.4,0.4,0.3,0.7l-1,3.7c-0.1,0.3-0.4,0.5-0.7,0.4c-0.5-0.2-1.1-0.4-1.7-0.5      c-0.9-0.2-1.8-0.3-2.7-0.3c-2.5,0-4.5,0.7-6.1,2.1c-1.6,1.5-2.5,3.7-2.5,6.6c0,2.7,0.7,4.8,2.1,6.4c1.5,1.6,3.5,2.4,6.2,2.4      c1.7,0,3.2-0.2,4.4-0.5C97.4,32.6,97.7,32.8,97.7,33.2z"></path>					<path fill="#B21F24" d="M92,38.5c-0.1,0-0.3,0-0.4,0c-4.5-0.1-8-1.4-10.5-4c-2.3-2.5-3.5-5.7-3.4-9.7c0.1-4.5,1.6-8,4.5-10.5      c2.7-2.4,6.3-3.6,10.5-3.5c1.5,0,2.8,0.2,4,0.4c0.9,0.2,1.7,0.4,2.2,0.7c0.4,0.2,0.5,0.6,0.4,1l-1,3.7      c-0.1,0.2-0.2,0.4-0.4,0.5c-0.2,0.1-0.4,0.1-0.7,0c-0.5-0.2-1.1-0.3-1.7-0.5c-0.9-0.2-1.8-0.3-2.7-0.3c-0.1,0-0.1,0-0.2,0      c-2.3,0-4.3,0.7-5.7,2c-1.6,1.5-2.4,3.6-2.5,6.4c0,2.6,0.7,4.7,2.1,6.2c1.4,1.5,3.4,2.3,6,2.3c1.7,0,3.1-0.2,4.3-0.5      c0.2-0.1,0.5,0,0.7,0.1c0.2,0.1,0.3,0.3,0.4,0.5l0.6,3.6c0.1,0.4-0.2,0.8-0.5,0.9c-0.6,0.2-1.4,0.4-2.4,0.6      C94.6,38.4,93.4,38.5,92,38.5z M92.3,11.2c-4,0-7.3,1.1-9.8,3.4c-2.8,2.4-4.2,5.9-4.3,10.2c-0.1,3.8,1,7,3.3,9.3      c2.4,2.5,5.8,3.8,10.1,3.9c1.4,0,2.8-0.1,4-0.3c0.9-0.2,1.7-0.4,2.3-0.6c0.1-0.1,0.2-0.2,0.2-0.3l-0.6-3.6      c0-0.1-0.1-0.2-0.1-0.2c-0.1,0-0.2-0.1-0.3,0c-1.2,0.4-2.8,0.6-4.5,0.5c-2.7,0-4.9-0.9-6.4-2.5c-1.5-1.6-2.3-3.8-2.2-6.5      c0-2.9,0.9-5.2,2.6-6.7c1.6-1.5,3.7-2.2,6.2-2.1c1,0,1.9,0.1,2.8,0.3c0.6,0.2,1.2,0.3,1.7,0.5c0.1,0,0.2,0,0.3,0      c0.1,0,0.1-0.1,0.1-0.2l1-3.7c0-0.1,0-0.3-0.2-0.4c-0.5-0.2-1.3-0.4-2.1-0.6c-1.1-0.2-2.4-0.4-3.9-0.4      C92.5,11.2,92.4,11.2,92.3,11.2z"></path>				</g>				<g>					<path fill="#FFFFFF" d="M104.4,38.1l5.3-24.8c0.1-0.3,0.4-0.5,0.7-0.4l4.7,1c0.3,0.1,0.5,0.4,0.4,0.7l-2.3,10.9l2.5-2.4      l7.5-7.2c0.1-0.1,0.3-0.2,0.5-0.1l5.8,1.2c0.5,0.1,0.6,0.7,0.2,1l-9.8,8.2c-0.2,0.1-0.2,0.4-0.2,0.6l5.4,15.5      c0.1,0.4-0.2,0.8-0.6,0.7l-5.6-1.2c-0.2,0-0.4-0.2-0.4-0.4L115,30c-0.1-0.4-0.6-0.5-0.9-0.3l-2,1.6c-0.1,0.1-0.2,0.2-0.2,0.3      l-1.7,7.7c-0.1,0.3-0.4,0.5-0.7,0.4l-4.7-1C104.5,38.7,104.4,38.4,104.4,38.1z"></path>					<path fill="#B21F24" d="M124.7,43.3c-0.1,0-0.1,0-0.2,0l-5.6-1.2c-0.3-0.1-0.5-0.3-0.6-0.6l-3.6-11.5c0-0.1-0.1-0.2-0.2-0.2      c-0.1,0-0.2,0-0.3,0.1l-2,1.6c-0.1,0-0.1,0.1-0.1,0.2l-1.7,7.7c-0.1,0.4-0.5,0.7-1,0.6l-4.7-1c-0.4-0.1-0.7-0.5-0.6-1l5.3-24.8      c0-0.2,0.2-0.4,0.4-0.5c0.2-0.1,0.4-0.2,0.6-0.1l4.7,1c0.4,0.1,0.7,0.5,0.6,1l-2.2,10.1l1.9-1.9l7.5-7.2      c0.2-0.2,0.5-0.3,0.7-0.2l5.8,1.2c0.3,0.1,0.5,0.3,0.6,0.6c0.1,0.3,0,0.6-0.3,0.8l-9.8,8.2c-0.1,0.1-0.1,0.2-0.1,0.3l5.4,15.5      c0.1,0.3,0,0.6-0.2,0.8C125.1,43.2,124.9,43.3,124.7,43.3z M114.5,29.3c0.1,0,0.2,0,0.2,0c0.3,0.1,0.5,0.3,0.5,0.5l3.6,11.5      c0,0.1,0.1,0.2,0.2,0.2l5.6,1.2c0.1,0,0.2,0,0.3-0.1c0,0,0.1-0.1,0.1-0.3l-5.4-15.5c-0.1-0.3,0-0.7,0.2-0.9l9.8-8.2      c0.1-0.1,0.1-0.2,0.1-0.3c0-0.1-0.1-0.2-0.2-0.2l-5.8-1.2c-0.1,0-0.2,0-0.3,0.1l-7.5,7.2l-3.1,3l2.5-11.7c0-0.1,0-0.2,0-0.2      c0-0.1-0.1-0.1-0.2-0.1l-4.7-1c-0.1,0-0.2,0-0.2,0c-0.1,0-0.1,0.1-0.1,0.2l-5.3,24.8c0,0.2,0.1,0.3,0.2,0.4l4.7,1      c0.2,0,0.3-0.1,0.4-0.2l1.7-7.7c0-0.2,0.1-0.3,0.3-0.5l2-1.6C114.1,29.4,114.3,29.3,114.5,29.3z"></path>				</g>				<g>					<path fill="#FFFFFF" d="M140,49.7l-4.4-2.1c-0.3-0.1-0.4-0.5-0.3-0.7l4.3-9.2c0-0.1,0.1-0.2,0.1-0.3l-0.9-16.7      c0-0.4,0.4-0.7,0.8-0.5l5,2.3c0.2,0.1,0.3,0.3,0.3,0.5l-0.2,6.6l-0.2,4.1c0,0.5,0.6,0.8,0.9,0.4l3-2.8l4.8-4.4      c0.2-0.2,0.4-0.2,0.6-0.1l4.9,2.3c0.4,0.2,0.4,0.7,0.1,1l-13.5,9.7c-0.1,0.1-0.1,0.1-0.2,0.2l-4.4,9.4      C140.6,49.7,140.2,49.8,140,49.7z"></path>					<path fill="#B21F24" d="M140.2,50c-0.1,0-0.2,0-0.3-0.1l-4.4-2.1c-0.4-0.2-0.6-0.7-0.4-1.1l4.3-9.2c0,0,0-0.1,0-0.1l-0.9-16.7      c0-0.3,0.1-0.6,0.4-0.7c0.2-0.2,0.5-0.2,0.8-0.1l5,2.3c0.3,0.1,0.5,0.4,0.5,0.8l-0.2,6.6l-0.2,4.1c0,0.2,0.1,0.3,0.2,0.3      c0,0,0.2,0.1,0.3-0.1l3-2.8l4.8-4.4c0.2-0.2,0.6-0.3,0.9-0.1l4.9,2.3c0.3,0.1,0.4,0.4,0.5,0.7s-0.1,0.6-0.3,0.7L145.4,40      c0,0-0.1,0.1-0.1,0.1l-4.4,9.4C140.8,49.8,140.5,50,140.2,50z M139.2,20.4c-0.1,0-0.1,0-0.2,0.1c-0.1,0.1-0.1,0.2-0.1,0.3      l0.9,16.7c0,0.1,0,0.3-0.1,0.4l-4.3,9.2c-0.1,0.2,0,0.3,0.1,0.4l4.4,2.1c0.2,0.1,0.3,0,0.4-0.1l4.4-9.4      c0.1-0.1,0.1-0.2,0.3-0.3l13.5-9.7c0.1-0.1,0.1-0.2,0.1-0.3c0-0.1,0-0.2-0.2-0.2l-4.9-2.3c-0.1-0.1-0.2,0-0.3,0.1l-7.9,7.2      c-0.2,0.2-0.6,0.3-0.9,0.1c-0.3-0.1-0.5-0.4-0.5-0.8l0.2-4.1l0.2-6.6c0-0.1-0.1-0.2-0.2-0.3l-5-2.3      C139.3,20.4,139.2,20.4,139.2,20.4z"></path>				</g>			</g>			<g>				<path fill="#F2F2F2" d="M26.8,25.5c3,5.3,5.3,10.9,6.9,16.8C30.7,37,28.4,31.4,26.8,25.5L26.8,25.5z"></path>				<path fill="#F2F2F2" d="M60.9,36.9c5-1.6,4.3-5.8,3.5-10c-0.2-1.4-0.3-2.8-0.3-4.2c0.5,1.3,0.9,2.7,1.2,4     c0.3,1.4,0.7,2.6,0.8,4.2C66.5,34,63.9,37.1,60.9,36.9L60.9,36.9z"></path>				<path fill="#F2F2F2" d="M96.5,33.6c-5,2.2-12.1,1.3-12.9-5.2c-0.1-0.8-0.1-1.5,0-2.3C84.8,33.6,90,34.4,96.5,33.6L96.5,33.6z"></path>				<path fill="#F2F2F2" d="M128.2,17.8c-2.5,3-5.4,5.4-8.8,7.2C121.8,22,124.8,19.6,128.2,17.8L128.2,17.8z"></path>				<path fill="#F2F2F2" d="M147.7,36.2c-1,1.2-2.4,2.1-3.3,3.5c-0.8,1.3-1.6,2.9-2.7,4.1C142.4,40.3,144,37.2,147.7,36.2     L147.7,36.2z"></path>			</g>		</g>		<g>			<path fill="#424143" d="M58.7,61.6h9.4v2.8h-6v4h5.7v2.8h-5.7v7.3h-3.4V61.6z"></path>			<path fill="#424143" d="M75.1,61.3c5.1,0,5.8,3.6,5.8,8.8c0,5.1-0.6,8.8-5.8,8.8c-5.1,0-5.8-3.6-5.8-8.8    C69.4,64.9,70,61.3,75.1,61.3z M75.1,76.3c2,0,2.3-1.7,2.3-6.3c0-4.5-0.3-6.3-2.3-6.3c-2,0-2.3,1.8-2.3,6.3    C72.8,74.6,73.1,76.3,75.1,76.3z"></path>			<path fill="#424143" d="M88.3,61.3c5.1,0,5.8,3.6,5.8,8.8c0,5.1-0.6,8.8-5.8,8.8c-5.1,0-5.8-3.6-5.8-8.8    C82.5,64.9,83.2,61.3,88.3,61.3z M88.3,76.3c2,0,2.3-1.7,2.3-6.3c0-4.5-0.3-6.3-2.3-6.3c-2,0-2.3,1.8-2.3,6.3    C85.9,74.6,86.3,76.3,88.3,76.3z"></path>			<path fill="#424143" d="M96.2,61.6h5.6c4.7,0,5.6,3.2,5.6,8.2c0,6-1.3,8.7-5.8,8.7h-5.4V61.6z M99.6,76h1.5    c2.4,0,2.8-1.5,2.8-6.1c0-3.8-0.3-5.8-2.9-5.8h-1.4V76z"></path>			<path fill="#424143" d="M112.4,73.2v0.5c0,1.6,0.5,2.6,2.2,2.6c1,0,2-0.7,2-2.1c0-1.5-0.8-2.1-3-2.9c-3-1-4.4-2.3-4.4-5.1    c0-3.3,2-5,5.2-5c3,0,5.2,1.3,5.2,4.5v0.5h-3.3c0-1.6-0.5-2.5-1.8-2.5c-1.5,0-1.9,1-1.9,2c0,1,0.3,1.7,1.8,2.3l2.6,1.1    c2.6,1.1,3.2,2.4,3.2,4.5c0,3.6-2.2,5.2-5.9,5.2c-3.9,0-5.4-1.8-5.4-4.9v-0.7H112.4z"></path>		</g>		<g>			<path fill="#424143" d="M62.7,82.9c0-0.8-0.3-1.4-1.2-1.4c-0.8,0-1.3,0.4-1.3,1.3c0,2.2,3.7,0.9,3.7,3.7c0,1.8-1.3,2.3-2.4,2.3    c-1.8,0-2.3-0.9-2.3-2.6h1c0,0.9,0.1,1.8,1.5,1.8c0.8,0,1.3-0.5,1.3-1.4c0-2.2-3.7-0.9-3.7-3.8c0-0.7,0.3-2.1,2.3-2.1    c1.5,0,2.2,0.7,2.2,2.2H62.7z"></path>			<path fill="#424143" d="M66.3,80.9h1v7.8h-1V80.9z"></path>			<path fill="#424143" d="M70.1,80.9h1.2l2.6,6.5h0v-6.5h1v7.8h-1.3l-2.5-6.3h0v6.3h-1V80.9z"></path>			<path fill="#424143" d="M82.4,86c-0.1,1.5-0.7,2.8-2.4,2.8c-2.2,0-2.5-2.1-2.5-4c0-2,0.4-4,2.5-4c1.6,0,2.3,0.9,2.3,2.4h-1    c0-0.9-0.3-1.6-1.3-1.6c-1.3,0-1.5,1.5-1.5,3.3c0,1.8,0.2,3.3,1.5,3.3c1.2,0,1.3-1.1,1.4-2H82.4z"></path>			<path fill="#424143" d="M84.8,80.9h4v0.8h-3.1v2.4h2.9V85h-2.9v2.8H89v0.8h-4.1V80.9z"></path>			<path fill="#424143" d="M99.6,88.7h-4.3c0-1.4,0.8-2.4,1.7-3.2l0.6-0.5c0.6-0.5,1-1,1-1.8c0-0.7-0.3-1.4-1.1-1.4    c-1.2,0-1.2,1.2-1.2,1.7h-1c0-1.5,0.6-2.4,2.2-2.4c1.8,0,2.1,1.4,2.1,2.1c0,1.2-0.5,1.8-1.3,2.5l-1.1,0.9    c-0.4,0.4-0.7,0.8-0.8,1.3h3.3V88.7z"></path>			<path fill="#424143" d="M102,84.9c0-1.7,0.1-4,2.2-4s2.2,2.1,2.2,4c0,1.6-0.1,3.9-2.2,3.9S102,86.8,102,84.9z M104.2,88.1    c1.2,0,1.2-1.6,1.2-3.2c0-1.7-0.1-3.2-1.2-3.2s-1.2,1.5-1.2,3.2C103,86.6,103,88.1,104.2,88.1z"></path>			<path fill="#424143" d="M109.1,82.2c1-0.1,1.9-0.2,1.9-1.3h0.7v7.7h-0.9v-5.8h-1.6V82.2z"></path>			<path fill="#424143" d="M116.2,81.1h3.4V82h-2.7l-0.3,2.2l0,0c0.3-0.4,0.8-0.6,1.3-0.6c1.2,0,1.9,0.9,1.9,2.5    c0,1.4-0.6,2.6-2.2,2.6c-1.8,0-2.1-1.5-2.1-2.1h1c0,0.4,0.2,1.4,1.2,1.4c1.1,0,1.3-1.2,1.3-2c0-0.8-0.3-1.7-1.3-1.7    c-0.7,0-1.1,0.6-1.1,0.8l-0.8,0L116.2,81.1z"></path>		</g>	</g>	<g>		<g>			<path fill="#FFFFFF" d="M163.2,29.3l0.8,0.1c0.4,0.1,0.6,0.3,0.5,0.7c0,0.3-0.2,0.5-0.5,0.5l0,0c0.2,0.1,0.3,0.2,0.3,0.4    l-0.1,0.4c0,0.3,0,0.3,0.1,0.4l-0.3-0.1c0-0.1,0-0.2,0-0.4l0-0.4c0-0.3-0.1-0.4-0.3-0.4l-0.4-0.1l-0.2,1l-0.3-0.1L163.2,29.3z     M163.3,30.4l0.3,0.1c0.2,0,0.5,0.1,0.6-0.4c0-0.2-0.1-0.4-0.4-0.4l-0.3-0.1L163.3,30.4z"></path>		</g>		<g>			<path fill="#FFFFFF" d="M163.7,33.2c-0.2,0-0.3,0-0.5,0c-0.7-0.1-1.2-0.5-1.6-1.1c-0.4-0.6-0.5-1.2-0.4-1.9    c0.1-0.7,0.5-1.2,1.1-1.6c0.6-0.4,1.2-0.5,1.9-0.4c1.4,0.3,2.3,1.6,2,3l0,0c-0.1,0.7-0.5,1.2-1.1,1.6    C164.7,33,164.2,33.2,163.7,33.2z M163.7,28.5c-1,0-1.9,0.7-2.1,1.8c-0.1,0.6,0,1.1,0.3,1.6c0.3,0.5,0.8,0.8,1.4,0.9    c0.6,0.1,1.1,0,1.6-0.3s0.8-0.8,0.9-1.4v0c0.2-1.2-0.6-2.3-1.7-2.5C163.9,28.5,163.8,28.5,163.7,28.5z"></path>		</g>	</g></g></svg>